<svg width="353" height="80" viewBox="0 0 353 80" fill="none" xmlns="http://www.w3.org/2000/svg">
<path d="M76.8591 59.398V78.9354C70.9591 78.9354 65.7094 76.0099 62.4878 71.5386C55.9029 76.8317 47.5356 80 38.4296 80C27.8186 80 18.2109 75.6984 11.2569 68.7437C4.30223 61.7897 0 52.1814 0 41.5704C0 30.9589 4.30223 21.3512 11.2569 14.3971C18.2109 7.44247 27.8186 3.14024 38.4296 3.14024C46.0605 3.14024 53.1737 5.36536 59.1536 9.20249V20.8458H38.3069C32.62 20.8687 27.5053 23.1855 23.7746 26.9161C20.0254 30.6653 17.7056 35.8469 17.7056 41.5704C17.7056 47.2939 20.0254 52.4762 23.7746 56.2254C27.5251 59.9746 32.7067 62.2944 38.4296 62.2944C44.1537 62.2944 49.3353 59.9746 53.0845 56.226C56.8343 52.4762 59.1536 47.2939 59.1536 41.5704V41.6931C59.1536 51.4314 67.1214 59.398 76.8585 59.398H76.8591Z" fill="#384653"/>
<path d="M59.1537 20.846V7.62939e-06C68.8915 7.62939e-06 76.8587 7.96782 76.8587 17.7056V20.8454H97.7047C97.7047 30.5838 89.7375 38.551 79.9991 38.551H76.8587V59.3982C67.1209 59.3982 59.1537 51.431 59.1537 41.6926V38.551H56.0127C46.2743 38.551 38.3071 30.5844 38.3071 20.846H59.1537Z" fill="#EC6608"/>
<path d="M109.084 33.624H111.888L113.389 30.6402H120.315L121.816 33.624H124.637L118.253 20.9644H115.432L109.084 33.624ZM352.377 55.8659V46.8236H350.135L349.882 48.0163C348.96 47.0769 347.621 46.5523 346.102 46.5523C343.082 46.5523 340.839 48.5954 340.839 51.3624C340.839 54.0935 343.1 56.1371 346.102 56.1371C347.639 56.1371 348.96 55.5953 349.882 54.6719L350.135 55.8659H352.377ZM343.371 51.3624C343.371 49.8612 344.745 48.7762 346.645 48.7762C348.543 48.7762 349.846 49.8433 349.846 51.3624C349.846 52.8636 348.561 53.8947 346.645 53.8947C344.745 53.8947 343.371 52.8276 343.371 51.3624ZM327.167 55.8659H337.802V58.7592H340.152V53.5144H338.308V46.8236H335.776V53.5144H329.699V46.8236H327.167V55.8659ZM324.888 55.8659V46.8236H322.772L316.714 52.2672V46.8236H314.182V55.8659H316.28L322.357 50.3319V55.8659H324.888ZM300.871 55.8659H303.403V52.5019H309.317V55.8659H311.849V46.8236H309.317V50.169H303.403V46.8236H300.871V55.8659ZM288.646 46.8236V55.8659H294.524C297.525 55.8659 299.116 54.6905 299.116 52.466C299.116 50.3498 297.399 49.1014 294.524 49.1014H291.178V46.8236H288.646ZM296.585 52.466C296.585 53.3881 295.825 53.9312 294.524 53.9312H291.178V51.0013H294.524C295.807 51.0013 296.585 51.5791 296.585 52.466ZM276.547 51.381C276.348 53.1707 275.841 53.8222 274.666 53.8222V56.1371C277.505 56.1371 278.663 54.8893 279.061 51.5618L279.332 49.1565H283.799V55.8659H286.331V46.8236H277.053L276.547 51.381ZM262.865 51.3624C262.865 54.0935 265.234 56.1371 268.399 56.1371C271.618 56.1371 273.951 54.1839 273.951 51.3624C273.951 48.487 271.618 46.5523 268.399 46.5523C265.216 46.5523 262.865 48.5954 262.865 51.3624ZM265.397 51.3624C265.397 49.9157 266.662 48.8852 268.399 48.8852C270.208 48.8852 271.42 49.9157 271.42 51.3624C271.42 52.7738 270.208 53.7863 268.399 53.7863C266.681 53.7863 265.397 52.7738 265.397 51.3624ZM251.182 51.472C251.182 54.0935 253.334 56.1371 256.427 56.1371C259.61 56.1371 261.69 54.2204 261.69 51.472C261.69 49.1379 259.7 47.2391 257.15 47.2391C255.848 47.2391 254.727 47.7996 253.949 48.6678C254.166 47.7098 254.545 46.932 255.161 46.4074C256.879 44.9967 259.248 46.1541 261.129 44.1284L259.971 42.4105C257.819 44.2009 255.161 43.08 253.099 44.9422C251.76 46.1541 251.182 47.6912 251.182 51.472ZM253.714 51.472C253.714 50.2415 254.799 49.3014 256.427 49.3014C258.036 49.3014 259.158 50.2229 259.158 51.472C259.158 52.7738 258.127 53.7863 256.427 53.7863C254.636 53.7863 253.714 52.8091 253.714 51.472ZM235.08 55.8659L236.997 53.5869H239.692V55.8659H242.061V46.8236H236.4C234.05 46.8236 232.186 48.1613 232.186 50.2055C232.186 51.5618 233.091 52.6468 234.374 53.1893L231.843 55.8659H235.08ZM234.538 50.2055C234.538 49.3912 235.279 48.8673 236.4 48.8673H239.692V51.5259H236.4C235.261 51.5259 234.538 51.0187 234.538 50.2055ZM230.284 55.8659V46.8236H228.041L227.788 48.0163C226.866 47.0769 225.527 46.5523 224.009 46.5523C220.988 46.5523 218.746 48.5954 218.746 51.3624C218.746 54.0935 221.007 56.1371 224.009 56.1371C225.546 56.1371 226.866 55.5953 227.788 54.6719L228.041 55.8659H230.284ZM221.277 51.3624C221.277 49.8612 222.652 48.7762 224.551 48.7762C226.449 48.7762 227.752 49.8433 227.752 51.3624C227.752 52.8636 226.468 53.8947 224.551 53.8947C222.652 53.8947 221.277 52.8276 221.277 51.3624ZM211.207 52.5019V55.8659H208.675V46.8236H211.207V50.2055H212.329L215.439 46.8236H218.766L214.626 51.3444L219.129 55.8659H215.692L212.31 52.5019H211.207ZM198.962 51.3624C198.962 49.8978 200.228 48.8493 201.964 48.8493C203.32 48.8493 204.333 49.4098 204.749 50.3319H207.371C206.883 48.0164 204.749 46.5523 201.964 46.5523C198.781 46.5523 196.43 48.5954 196.43 51.3624C196.43 54.0935 198.799 56.1371 201.964 56.1371C204.768 56.1371 206.919 54.636 207.389 52.3396H204.768C204.351 53.2797 203.338 53.8222 201.964 53.8222C200.246 53.8222 198.962 52.8091 198.962 51.3624ZM195.218 51.978C195.254 51.7779 195.254 51.5618 195.254 51.3624C195.254 48.487 192.939 46.5523 189.847 46.5523C186.718 46.5523 184.403 48.5954 184.403 51.3624C184.403 54.0935 186.736 56.1371 189.847 56.1371C192.324 56.1371 194.26 54.9444 194.946 53.0989H192.379C191.908 53.7498 191.041 54.148 189.955 54.148C188.436 54.148 187.278 53.2797 187.008 51.978H195.218ZM187.008 50.7115C187.278 49.4457 188.382 48.5954 189.847 48.5954C191.33 48.5954 192.397 49.4277 192.649 50.7115H187.008ZM180.153 48.7762C180.153 50.3319 179.122 51.472 177.62 51.472C176.138 51.472 175.107 50.2415 175.107 48.5774V46.8236H172.575V48.5774C172.575 51.6336 174.365 53.8043 176.952 53.8043C178.255 53.8043 179.393 53.1707 180.153 52.1396V55.8659H182.685V46.8236H180.153V48.7762ZM170.865 55.8659V46.8236H168.748L162.691 52.2672V46.8236H160.159V55.8659H162.256L168.333 50.3319V55.8659H170.865ZM146.848 55.8659H149.38V52.5019H155.294V55.8659H157.825V46.8236H155.294V50.169H149.38V46.8236H146.848V55.8659ZM144.569 55.8659V46.8236H142.453L136.395 52.2672V46.8236H133.862V55.8659H135.96L142.037 50.3319V55.8659H144.569ZM121.763 51.381C121.565 53.1707 121.058 53.8222 119.883 53.8222V56.1371C122.722 56.1371 123.879 54.8893 124.278 51.5618L124.548 49.1565H129.015V55.8659H131.547V46.8236H122.269L121.763 51.381ZM111.766 52.5019H112.869L116.251 55.8659H119.688L115.184 51.3444L119.325 46.8236H115.998L112.888 50.2055H111.766V46.8236H109.234V55.8659H111.766V52.5019ZM319.037 33.624L320.954 31.345H323.649V33.624H326.018V24.5817H320.357C318.007 24.5817 316.143 25.9194 316.143 27.9637C316.143 29.3193 317.047 30.4049 318.332 30.9474L315.8 33.624H319.037ZM318.495 27.9637C318.495 27.1493 319.236 26.6254 320.357 26.6254H323.649V29.2834H320.357C319.218 29.2834 318.495 28.7768 318.495 27.9637ZM314.643 33.624V24.5817H312.4L312.147 25.7745C311.224 24.8344 309.886 24.3105 308.367 24.3105C305.347 24.3105 303.104 26.3535 303.104 29.1205C303.104 31.8516 305.365 33.8952 308.367 33.8952C309.904 33.8952 311.224 33.3534 312.147 32.43L312.4 33.624H314.643ZM305.636 29.1205C305.636 27.62 307.01 26.535 308.91 26.535C310.808 26.535 312.11 27.6014 312.11 29.1205C312.11 30.6217 310.827 31.6528 308.91 31.6528C307.01 31.6528 305.636 30.5857 305.636 29.1205ZM290.822 33.624H293.354V30.26H299.268V33.624H301.8V24.5817H299.268V27.9271H293.354V24.5817H290.822V33.624ZM282.903 33.624H285.435V26.9146H289.486V24.5817H278.798V26.9146H282.903V33.624ZM269.72 29.1205C269.72 27.6553 270.986 26.6074 272.722 26.6074C274.079 26.6074 275.091 27.1679 275.508 28.09H278.13C277.641 25.7745 275.508 24.3105 272.722 24.3105C269.54 24.3105 267.189 26.3535 267.189 29.1205C267.189 31.8516 269.558 33.8952 272.722 33.8952C275.526 33.8952 277.678 32.3941 278.148 30.0977H275.526C275.109 31.0378 274.097 31.5803 272.722 31.5803C271.005 31.5803 269.72 30.5672 269.72 29.1205ZM265.803 33.624V24.5817H263.56L263.307 25.7745C262.385 24.8344 261.046 24.3105 259.527 24.3105C256.507 24.3105 254.264 26.3535 254.264 29.1205C254.264 31.8516 256.525 33.8952 259.527 33.8952C261.065 33.8952 262.385 33.3534 263.307 32.43L263.56 33.624H265.803ZM256.796 29.1205C256.796 27.62 258.171 26.535 260.07 26.535C261.969 26.535 263.27 27.6014 263.27 29.1205C263.27 30.6217 261.987 31.6528 260.07 31.6528C258.171 31.6528 256.796 30.5857 256.796 29.1205ZM242.725 29.1391C242.527 30.9288 242.021 31.5803 240.845 31.5803V33.8952C243.685 33.8952 244.842 32.6474 245.24 29.3193L245.511 26.9146H249.978V33.624H252.51V24.5817H243.232L242.725 29.1391ZM229.64 29.2295C229.64 31.8516 231.792 33.8952 234.885 33.8952C238.068 33.8952 240.149 31.9785 240.149 29.2295C240.149 26.896 238.159 24.9973 235.609 24.9973C234.307 24.9973 233.185 25.5577 232.408 26.4253C232.625 25.4679 233.004 24.6901 233.619 24.1662C235.338 22.7548 237.707 23.9123 239.587 21.8865L238.43 20.1686C236.277 21.959 233.619 20.8381 231.557 22.7009C230.219 23.9123 229.64 25.4493 229.64 29.2295ZM232.173 29.2295C232.173 28.0002 233.258 27.0595 234.885 27.0595C236.495 27.0595 237.616 27.9816 237.616 29.2295C237.616 30.5319 236.585 31.5444 234.885 31.5444C233.095 31.5444 232.173 30.5672 232.173 29.2295ZM217.361 29.1205C217.361 31.8516 219.73 33.8952 222.894 33.8952C226.114 33.8952 228.448 31.942 228.448 29.1205C228.448 26.2451 226.114 24.3105 222.894 24.3105C219.712 24.3105 217.361 26.3535 217.361 29.1205ZM219.893 29.1205C219.893 27.6738 221.159 26.6427 222.894 26.6427C224.703 26.6427 225.916 27.6738 225.916 29.1205C225.916 30.5319 224.703 31.5444 222.894 31.5444C221.177 31.5444 219.893 30.5319 219.893 29.1205ZM202.099 33.624L204.016 31.345H206.711V33.624H209.08V24.5817H203.419C201.068 24.5817 199.205 25.9194 199.205 27.9637C199.205 29.3193 200.11 30.4049 201.393 30.9474L198.862 33.624H202.099ZM201.557 27.9637C201.557 27.1493 202.298 26.6254 203.419 26.6254H206.711V29.2834H203.419C202.28 29.2834 201.557 28.7768 201.557 27.9637ZM197.57 33.624V24.5817H195.328L195.075 25.7745C194.152 24.8344 192.814 24.3105 191.295 24.3105C188.275 24.3105 186.032 26.3535 186.032 29.1205C186.032 31.8516 188.293 33.8952 191.295 33.8952C192.832 33.8952 194.152 33.3534 195.075 32.43L195.328 33.624H197.57ZM188.564 29.1205C188.564 27.62 189.939 26.535 191.838 26.535C193.736 26.535 195.038 27.6014 195.038 29.1205C195.038 30.6217 193.754 31.6528 191.838 31.6528C189.939 31.6528 188.564 30.5857 188.564 29.1205ZM178.728 30.26V33.624H176.196V24.5817H178.728V27.9637H179.85L182.96 24.5817H186.287L182.146 29.1025L186.649 33.624H183.213L179.831 30.26H178.728ZM166.416 29.1205C166.416 27.6553 167.681 26.6074 169.417 26.6074C170.774 26.6074 171.787 27.1679 172.203 28.09H174.826C174.336 25.7745 172.203 24.3105 169.417 24.3105C166.234 24.3105 163.884 26.3535 163.884 29.1205C163.884 31.8516 166.253 33.8952 169.417 33.8952C172.221 33.8952 174.373 32.3941 174.844 30.0977H172.221C171.805 31.0378 170.792 31.5803 169.417 31.5803C167.7 31.5803 166.416 30.5672 166.416 29.1205ZM151.286 24.5817V37.2413H153.817V32.4851C154.74 33.3887 156.042 33.8952 157.544 33.8952C160.563 33.8952 162.806 31.8516 162.806 29.0852C162.806 26.3535 160.545 24.3105 157.544 24.3105C156.024 24.3105 154.704 24.8344 153.781 25.7392L153.546 24.5817H151.286ZM160.273 29.0852C160.273 30.5672 158.935 31.6528 157 31.6528C155.101 31.6528 153.817 30.6037 153.817 29.0852C153.817 27.5834 155.101 26.535 157 26.535C158.9 26.535 160.273 27.6014 160.273 29.0852ZM145.523 37.1868L150.061 24.5817H147.403L145.016 31.2007H143.406L141 24.5817H138.324L141.615 33.624H144.129L142.845 37.1868H145.523ZM127.967 28.705L130.481 33.624H132.325L134.803 28.7768V33.624H137.1V24.5817H134.55L131.385 30.4049L128.257 24.5817H125.688V33.624H127.967V28.705ZM114.546 28.3253L116.843 23.7673L119.139 28.3253H114.546Z" fill="#384653"/>
</svg>
